<?xml version="1.0" encoding="utf-8"?>
<!-- Generator: Adobe Illustrator 22.0.1, SVG Export Plug-In . SVG Version: 6.00 Build 0)  -->
<svg version="1.1" id="Layer_1" xmlns="http://www.w3.org/2000/svg" xmlns:xlink="http://www.w3.org/1999/xlink" x="0px" y="0px"
	 viewBox="0 0 449.1 500" style="enable-background:new 0 0 449.1 500;" xml:space="preserve">
<style type="text/css">
	.st0{opacity:0.4;fill:#D6D8E5;enable-background:new    ;}
	.st1{fill:#11395D;}
	.st2{fill:#FFCEA9;}
	.st3{fill:#F4F4F4;}
	.st4{fill:#D7FF00;}
	.st5{fill:#9C73FF;}
	.st6{fill:#EDEDED;}
	.st7{fill:#C1C4D3;}
	.st8{fill:#62C8E8;}
	.st9{fill:#6CD4FF;}
	.st10{fill:#5CBFD6;}
	.st11{fill:#D6D8E5;}
	.st12{fill:#D6D6D6;}
	.st13{opacity:0.2;enable-background:new    ;}
	.st14{fill:#BCD64D;}
	.st15{fill:#28221C;}
	.st16{opacity:7.000000e-02;fill:#FFFFFF;enable-background:new    ;}
	.st17{fill:#8DA01F;}
	.st18{fill:#99B524;}
	.st19{fill:#F7B03E;}
	.st20{fill:#FCC068;}
	.st21{fill:#C9883A;}
	.st22{fill:#E09C3B;}
	.st23{fill:#2B303F;}
	.st24{fill:#BFBFBF;}
	.st25{fill:#E5E5E5;}
	.st26{fill:#A6CE28;}
	.st27{fill:#3D348B;}
	.st28{fill:#B7C0EE;}
	.st29{fill:#FFDF57;}
	.st30{fill:#D8AA44;}
	.st31{opacity:0.69;fill:#FFDF57;enable-background:new    ;}
	.st32{opacity:0.1;enable-background:new    ;}
	.st33{opacity:0.3;fill:url(#SVGID_1_);enable-background:new    ;}
	.st34{fill:#1F232D;}
	.st35{opacity:0.3;fill:url(#SVGID_2_);enable-background:new    ;}
</style>
<title>Creative_process_SVG</title>
<g id="Слой_2">
	<g id="Слой_1-2">
		<ellipse class="st0" cx="409.3" cy="220" rx="39.8" ry="23"/>
		<g id="Girl_8">
			<path id="_Контур_" class="st1" d="M415.6,14c1.5-2.5,13.4-4.1,17.3,5.9c1.5,3.8,1.3,13.6,2.5,19.7s4.1,9.6,5.2,14.6
				S439.9,67.5,428,69s-21.2-2.7-24-6.5s-2.9-11.9,0-16.3s5.2-7.9,5.1-13.6L415.6,14z"/>
			<path class="st2" d="M401.4,56.1c0,0-2.8,19.8,2.5,34s3.9-3.6,3.9-3.6l-1.3-4.2c0,0-1.1-16.3-0.6-20.3s0.3-7.4,0.6-7.7
				s-1.1-1-1.6-1S401.4,56.1,401.4,56.1z"/>
			<path id="_Контур_2" class="st1" d="M423.4,12.3c0,0-8.9-2.6-14.4,2.3c-3.6,3.4-5.1,8.5-3.8,13.2c0.7,2.8,2.2,6.7,4.4,6.9
				S423.4,12.3,423.4,12.3z"/>
			<path id="_Контур_3" class="st2" d="M426.8,36.7c0,0-0.6,10-0.4,10.7s3.9,1.4,5,2.3s-5.4,11-8.7,12.5s-13.5-2.3-14.2-7.4
				c-0.7-4.7,2.9-8.3,4.3-9.5c0.9-0.1,1.9-0.1,2.8-0.1l0.3-4.8C420.4,38.9,426.8,36.7,426.8,36.7z"/>
			<path id="_Контур_4" class="st3" d="M428.2,48.3c2.8,0.4,6,1.9,6.4,3.5c0.5,1.8,1.6,10.2-0.8,16.6s-4,10.5-5.5,13.3
				c0,0-12.1,5.2-21.9-0.9c0,0-0.7-6.9-0.7-10.6c-9-7.9-1.3-17.5,6.3-25.1c0.9-0.1,1.8-0.1,2.8,0c0,0-6.8,8-2.1,12.6
				C422.9,54.7,424.9,50.1,428.2,48.3z"/>
			<path id="_Контур_5" class="st2" d="M408.2,24.3L408.2,24.3c1-6.4,5.6-11.2,12.2-10.8c7,0.4,12.4,6.4,12,13.4c0,0,0,0,0,0
				c-0.2,3.9-2.3,7.5-5.6,9.7c-0.2,1-0.6,1.9-1,2.8c-2.4,2.7-8.5,4.5-10.6,4.5c-1.8,0-3.3-1.6-5-4.4
				C406.8,33.8,407.7,27.5,408.2,24.3z"/>
			<path class="st1" d="M422.5,13.6c4.6,0.9,8.4,2.2,9.7,6.8c0.9,3.1,2,9.1,0.9,11.6l-0.7,1.8l-5.6,2.9c0,0-2.6-2.2-1.8-8.6
				c0-0.9-0.3-1.7-0.8-2.4c-0.3-0.6-0.6-1.3-0.8-1.9c-0.7-1.7-2-3.1-3.6-3.9c-4.2-2.3-10.3-0.3-11.1,0.5
				C411.1,15.1,416.9,12.3,422.5,13.6z"/>
			<path id="_Контур_6" class="st2" d="M435,94.8c1-6.5,3-10.7,2.1-14.3c-2-7.2-4.7-14.2-7.9-21c-2-4-1.4-6.8,0.7-8.4
				c2.4-1.8,4.7-1,6.8,3.5c2.7,5.6,5.8,11.4,7.2,19.8c0.7,4.1,1.1,8-0.2,16.3c-0.9,5.8-2.8,9.1-5,14.6
				C438.1,106.8,434.1,100.3,435,94.8z"/>
			<path class="st4" d="M430.9,215.8c-2.3,1.9-6,0.6-6.2,0.8c-2.4,2.4-5.9,4.5-8.6,6.6c-1.5,1.1-3.7,2.7-3.3,4.9
				c0.7,3.9,7.1,2.7,9.4,1.5s4.3-3.2,6.6-4.6c1.6-1,3.2-1.5,3.4-3.6C432.5,220.1,431.3,215.7,430.9,215.8z"/>
			<path class="st5" d="M432.3,220.5c-0.3,2-1.9,2.5-3.5,3.5c-2.3,1.4-4.3,3.5-6.7,4.7c-2.2,1.1-7.7,2.2-9.3-0.6
				c0.8,3.8,7,2.6,9.4,1.4s4.3-3.2,6.6-4.6c1.6-1,3.2-1.5,3.4-3.6C432.3,221.1,432.3,220.8,432.3,220.5z"/>
			<path class="st4" d="M414.5,212.5c-2.1,1.8-5.4,0.8-5.5,0.9c-2.2,2.2-5.4,4.1-7.8,6c-1.3,1.1-3.4,2.5-3,4.5
				c0.7,3.6,6.5,2.5,8.6,1.4s4-2.9,6-4.2c1.5-0.9,2.9-1.4,3.1-3.3C416,216.7,414.8,212.5,414.5,212.5z"/>
			<path class="st5" d="M415.8,217.1c-0.3,1.8-1.7,2.3-3.2,3.2c-2.1,1.3-4,3.2-6.1,4.3c-2,1-7,2-8.5-0.5c0.8,3.5,6.5,2.4,8.6,1.3
				s4-2.9,6-4.2c1.5-0.9,2.9-1.4,3.1-3.3C415.9,217.6,415.9,217.3,415.8,217.1z"/>
			<path class="st2" d="M401.8,103.5c1-8.1,4-19.8,4-19.8c2.8,1.3,5.9,2.1,9,2.2c5.2,0.3,13.5-1.3,13.5-1.3c1.4,2.5,3,5,4.8,7.4
				c2.3,3.2,6.9,10.3,5.8,22.7c-0.7,8.1-5.3,42.4-5.3,42.4c1.8,5.8,2.7,11.8,2.8,17.9c0,5-1.4,13.5-2.8,21.3l-2.7,19.5
				c0,0-3.6,2.6-6.2,0.8l0.3-19.1c-0.3-4.7-0.8-11.6-1.1-16c-0.5-7.2-1.8-18.5-2.1-21.4s-1.3-7.8-1.7-13.4s-2.5-33.8-2.5-33.8
				l-0.3,5.3c0,0-0.3,8.6-1.5,19.2s-1.7,15.3-1.7,15.3s2.1,3.9,2.4,6.9c0.2,2.3,2.8,20.4,1.3,29.6l-3.2,23.4
				c-1.6,1.1-3.7,1.4-5.5,0.7l-1.9-23.6c-1.3-9-4-28.1-4.4-30.5c-0.5-3.3-1-4.9-1.6-15.1S400.8,111.6,401.8,103.5z"/>
			<path class="st1" d="M428.4,81.7l7,14c0,0,10.6,15.5-0.4,55.5l2,12.3c0,0-20.8,13.4-34.8,0c0,0-4.8-36.9-2.3-53.9
				c1.4-9.8,3.6-19.5,6.5-28.9c0,0,3.4,3.8,21,1.3"/>
			<path class="st6" d="M440.9,62.5c0,0-4.8,4.8-10.6,4.2l-2.8-9.4c0,0-1.8-4.9,2.4-7S438.5,52.9,440.9,62.5z"/>
			<path class="st6" d="M412.1,45.2c0,0-5.5-1.7-11.4,10.6l2.2,1.3C402.9,57.1,408.7,48.3,412.1,45.2z"/>
		</g>
		<ellipse class="st0" cx="39.8" cy="313.5" rx="39.8" ry="23"/>
		<g id="Men_13">
			<path class="st4" d="M19.4,306.4c2.9,2.3,7,0.2,7.3,0.4c3.3,3.1,6.9,6,10.5,8.8c1.8,1.4,4.5,3.3,4,6c-0.9,4.8-8.6,3.3-11.5,1.9
				s-5.3-3.9-8-5.6c-2-1.2-3.9-1.9-4.2-4.3C17.3,312,18.9,306.4,19.4,306.4z"/>
			<path class="st5" d="M17.6,312.5c0.4,2.4,2.3,3,4.2,4.2c2.8,1.7,5.2,4.2,8.1,5.7c2.7,1.4,9.4,2.7,11.2-0.7
				c-1,4.6-8.6,3.2-11.4,1.7s-5.3-3.9-8-5.6c-2-1.2-3.9-1.9-4.2-4.3C17.5,313.2,17.5,312.8,17.6,312.5z"/>
			<path class="st4" d="M44.1,297.3c2.8,2.3,7.8-0.2,8,0c3,3,6.1,5.8,9.4,8.5c1.8,1.4,4.5,3.3,4,6c-0.9,4.8-8.6,3.3-11.5,1.9
				s-5.3-3.9-8-5.6c-2-1.2-3.9-1.9-4.2-4.3C41.7,302.1,43.6,297.2,44.1,297.3z"/>
			<path class="st5" d="M42,303c0.4,2.4,2.3,3,4.2,4.2c2.8,1.7,5.3,4.2,8.1,5.7c2.7,1.4,9.4,2.7,11.3-0.7c-1,4.6-8.6,3.2-11.5,1.7
				s-5.3-3.9-8-5.6c-2-1.2-3.9-1.9-4.2-4.3C41.9,303.7,42,303.3,42,303z"/>
			<path id="_Контур_7" class="st1" d="M19.2,201.3c0.1,4.3,1.5,23,2.1,32.9s0.7,22,0.7,22s-1.7,7.2-2.8,15.7s0,35.3,0,35.3
				c2.2,1.4,5.1,1.4,7.3,0c0,0,4.6-21.4,6.7-31.1s2.5-15.2,3.6-21.2c1.3-7.2,4.2-41,4.2-41l1.1,0.1l3,38.1c-0.9,2.8-1.6,5.7-1.9,8.7
				c-0.8,6.2,0.9,37.5,0.9,37.5c2.5,1.4,5.5,1.3,7.9-0.3c0,0,7.6-41.4,7.6-47.7c0-4.2-0.7-59.1-0.7-59.1L19.2,201.3z"/>
			<path id="_Контур_8" class="st2" d="M29.5,118c0,0,0.5,9.4,0.3,10.2s-4.3,3.6-5.5,4.6s6.5,8.6,10.2,10.3s15.6-2.8,15.8-8.6
				s-2-10.7-3.8-11S29.5,118,29.5,118z"/>
			<path class="st2" d="M55.3,135.4c0.5-4.1-2.2-8.1,0.5-11.4c9.3,9.1,8.1,33.2,10.2,48.5c6.9,7.2,20.7,14.3,24.6,16
				c0.7,0.3,1.3,0.7,1.2,1.4c-0.6,3-1.4,4.1-3.2,7c-9.2-3.9-15.8-6.2-27.2-17.1c-1.1-1.2-2.1-2.4-2.9-3.8
				C55.2,166.4,54.3,142.6,55.3,135.4z"/>
			<path id="_Контур_9" class="st3" d="M28.5,129.8c0,0,6.8,10.2,16.3,11.2c3-3,3.3-13.5-0.9-16.8c0,0,3.8-3.1,6.4-2.5
				c2.8,1.7,4.9,4.4,5.9,7.5c2.4,7,3.6,14.4,3.3,21.8c-0.2,10,0,40.4,0,40.4s-1.3,6.4-9.9,11.2s-15,5.3-20.8,3.9
				c-4.8-1.1-8.8-2.8-10.4-6.3c0.4-7,3.5-25.2,2.4-34s-3-15.4-3.5-22.4s0.9-7,4.5-9.5C23.9,132.6,26.2,131.1,28.5,129.8z"/>
			<path id="_Контур_10" class="st2" d="M50.8,104L50.8,104c-1.1-7.3-6.4-12.8-13.9-12.4c-8,0.4-14.1,7.3-13.7,15.3
				c0.2,4.5,2.6,8.6,6.3,11.1c0.3,1.1,0.7,2.2,1.2,3.2c2.6,3.1,10.7,5,13,4.7c3-0.4,4.6-1.7,6-4.9C52.2,115.2,51.4,107.6,50.8,104z"
				/>
			<path class="st1" d="M29.5,118L29.5,118l0.7-6.4c0,0-5.2-13.5,7.1-10.9c8.1,1.7,10.1,2.4,12.6-3s-6.2-10.3-16.6-9
				c-7.4,0.8-12.9,7.1-12.8,14.5C20.9,107.3,21.9,115.4,29.5,118z"/>
			<path class="st2" d="M15.2,139.5c3.6-1,0.9-0.2,3.6-1c9.3,9.1,8.1,24.7,10.2,40.1c5.1,8.5,24.1,19.9,24.1,19.9
				c0.2,1.6-0.3,2.1-2.4,5.4c-9.2-3.9-16.8-7.4-28.3-18.2c-0.5-0.4-1.1-0.5-1.3-1.1C17.9,174.7,14.2,146.6,15.2,139.5z"/>
			<polygon class="st3" points="99.7,158.4 85.9,205.7 55.6,217.8 66.7,171.8 			"/>
			<path class="st2" d="M48.3,198.8c0.5-1.6,1.6-1.2,2.9-0.8c1.4,0.6,3,0.7,4.5,0.4c1.3-0.4,2.2-1.5,3.2-2.2c0.6-0.4,1.3-0.6,2-0.6
				c-0.1,0.4-0.7,2.8-0.7,2.8s6.6,0.1,7.3-0.1c0.6-0.1,1.2,0.3,1.3,1c0,0.3-0.1,0.6-0.3,0.9l0.4-0.1c1.4-0.3,1.9,1.8,0.6,2.1
				c-0.4,0.1-0.7,0.1-1.1,0.2c0.9,0.3,1.1,1.8,0,2l-0.3,0.1c-0.2,0.1-0.3,0.1-0.5,0.1h-0.2c0.1,0.6-0.3,1.3-0.9,1.4c0,0,0,0-0.1,0
				c-3.2,0.4-8,1.7-10.9-0.9c-2-0.2-4-0.7-5.9-1.6C47.8,202.6,47.8,200.7,48.3,198.8z"/>
			<path class="st2" d="M81.4,194.9h0.4c-0.5-0.4-0.6-1.1-0.2-1.6c0.2-0.3,0.5-0.4,0.8-0.4c0.7,0,7.5-1.4,7.5-1.4l0.8-2.8
				c0-0.2,1.2,0.6,1.2,0.6c1.2,0.8,1.9,2,2.1,3.4c0.1,2-0.7,3.9-2,5.3c-1.2,1.2-2.9,2-4.6,2c-0.8,0.1-1.6,0.1-2.3,0.1
				c-0.7,0-1.2-0.5-1.2-1.2c0,0,0,0,0,0h-0.2c-0.2,0-0.3,0-0.5,0H83c-1.2,0-1.3-1.4-0.5-2c-0.4,0-0.8,0.1-1.1,0.1
				C79.9,197.1,80,194.9,81.4,194.9z"/>
			<path class="st6" d="M59.2,141.6c0,0,3.5-0.2,4.9-2.2c-0.3-3.5-4.7-16.7-13.7-17.7c2.4,1.7,4.4,4.1,5.6,6.8
				C57.6,132.4,59.2,141.6,59.2,141.6z"/>
			<path class="st6" d="M13.6,159.1c0,0,8.9,3.1,15.2-2.1c0.7-1.2-3.6-16.4-3.6-16.4s-3.8-7.8-9.6-4.7S13.6,159.1,13.6,159.1z"/>
		</g>
		<ellipse class="st0" cx="104.7" cy="401.2" rx="5.2" ry="3"/>
		<ellipse class="st0" cx="201.3" cy="456.3" rx="5.2" ry="3"/>
		<ellipse class="st0" cx="368.9" cy="354.2" rx="5.2" ry="3"/>
		<path class="st7" d="M101.3,300.3v100.3c0,0.6,0.4,1.2,1,1.5c1.6,0.8,3.5,0.8,5.1,0c0.6-0.3,1-0.8,1-1.5l0,0V300.3H101.3z"/>
		<path class="st7" d="M198.2,339.4v116.4c0,0.6,0.4,1.2,0.9,1.5c1.4,0.8,3.1,0.8,4.4,0c0.5-0.3,0.9-0.9,0.9-1.5l0,0V339.4H198.2z"
			/>
		<path class="st7" d="M365.7,258.5v94.9c0,0.6,0.4,1.2,0.9,1.5c1.4,0.8,3.1,0.8,4.4,0c0.5-0.3,0.9-0.8,0.9-1.5l0,0v-94.9H365.7z"/>
		<polygon class="st8" points="201.3,369.2 95.1,307.9 95.1,300.7 201.3,362.1 		"/>
		<polygon class="st9" points="380.5,258.8 201.3,362.3 95.1,300.9 274.2,197.5 		"/>
		<polygon class="st10" points="380.5,265.8 201.3,369.2 201.3,362.1 380.5,258.6 		"/>
		<polygon class="st3" points="329.4,238.2 300.8,262.1 274.7,251.7 303.3,227.8 		"/>
		<polygon class="st3" points="322.8,239.3 287.2,259.9 264.8,246.9 300.3,226.4 		"/>
		<polygon class="st11" points="289.5,254.3 287.4,255.6 272.6,247 274.8,245.8 		"/>
		<polygon class="st11" points="294.4,251.5 292.3,252.7 277.5,244.2 279.7,242.9 		"/>
		<polygon class="st11" points="299.2,248.8 297,250 282.2,241.5 284.4,240.2 		"/>
		<polygon class="st11" points="310.2,242.4 308.1,243.6 299.5,238.7 301.6,237.4 		"/>
		<polygon class="st11" points="315,239.6 312.8,240.9 304.2,235.9 306.4,234.7 		"/>
		<path class="st12" d="M291.2,258.3c0.6-0.3,31.6-19,31.6-19L290.4,258L291.2,258.3z"/>
		<ellipse class="st13" cx="296.3" cy="282.8" rx="7.8" ry="4.5"/>
		<path class="st4" d="M304.8,282.1v-12l-15.5,0.4v11c-0.3,1.3,0.4,2.7,2.2,3.7c3.5,1.8,7.5,1.8,11,0
			C303.8,284.7,304.6,283.5,304.8,282.1z"/>
		<ellipse class="st14" cx="297" cy="270.2" rx="7.8" ry="4.5"/>
		<path class="st15" d="M303.5,270.2c0,0.7-0.6,1.5-1.7,2.1c-1.3,0.7-2.8,1.1-4.4,1.1H297c-1.7,0-3.4-0.4-4.9-1.1
			c-1-0.6-1.7-1.4-1.7-2.1s0.6-1.5,1.7-2.1c1.5-0.8,3.2-1.2,4.9-1.1h0.5c1.5,0,3,0.4,4.4,1.1C302.9,268.7,303.5,269.5,303.5,270.2z"
			/>
		<path class="st16" d="M303.5,270.2c0,0.7-0.6,1.5-1.7,2.1c-2.7,1.5-6,1.5-8.8,0c-1-0.6-1.7-1.4-1.7-2.1s0.6-1.5,1.7-2.1
			c2.7-1.5,6-1.5,8.8,0C302.9,268.7,303.5,269.5,303.5,270.2z"/>
		<path class="st17" d="M303.6,275.7l-1.6-1l-0.8,0.5l0.8,0.5v0.3l1.5,0.9v0.3c0.4,0.5,0.7,1.1,1,1.7l0.1,0v3.9c0,1-0.6,0.7-0.9,0.5
			l-1.7-1l-0.8,0.5l0.8,0.5v0.3l1.7,1c0.2,0.1,0.4,0.2,0.6,0.3l-0.1,0.5l0.9-0.5l0,0c0.4-0.3,0.6-0.8,0.5-1.3v-4
			C305.5,277.8,304.8,276.5,303.6,275.7z"/>
		<path class="st18" d="M302.9,284.9l-1.7-1v-1.2l1.7,1c0.3,0.1,0.9,0.5,0.9-0.5v-4c-0.1-0.7-0.4-1.3-1-1.7l-1.6-0.9v-1.2l1.6,1
			c1.2,0.8,1.9,2.1,2,3.5v4C304.8,284.8,304.3,285.7,302.9,284.9z"/>
		<ellipse class="st13" cx="143.2" cy="298.9" rx="7.8" ry="4.5"/>
		<path class="st19" d="M151.7,298.3v-12l-15.5,0.4v11c-0.3,1.3,0.4,2.7,2.2,3.7c3.5,1.8,7.5,1.8,11,0
			C150.7,300.9,151.6,299.6,151.7,298.3z"/>
		<ellipse class="st20" cx="143.9" cy="286.3" rx="7.8" ry="4.5"/>
		<path class="st15" d="M150.4,286.3c0,0.7-0.6,1.5-1.7,2.1c-1.3,0.7-2.8,1.1-4.4,1.1h-0.5c-1.7,0-3.4-0.4-4.9-1.1
			c-1.1-0.6-1.7-1.4-1.7-2.1s0.6-1.5,1.7-2.1c1.5-0.8,3.2-1.2,4.9-1.1h0.5c1.5,0,3,0.4,4.4,1.1C149.8,284.8,150.4,285.6,150.4,286.3
			z"/>
		<path class="st16" d="M150.4,286.3c0,0.7-0.6,1.5-1.7,2.1c-2.7,1.5-6,1.5-8.8,0c-1-0.6-1.7-1.4-1.7-2.1s0.6-1.5,1.7-2.1
			c2.7-1.5,6-1.5,8.8,0C149.8,284.8,150.4,285.6,150.4,286.3z"/>
		<path class="st21" d="M150.5,291.8l-1.6-1l-0.8,0.5l0.8,0.5v0.3l1.5,0.9l-0.1,0.3c0.4,0.5,0.7,1.1,1,1.7l0.1,0v3.9
			c0,1-0.6,0.7-0.8,0.5l-1.7-1l-0.8,0.5l0.8,0.5v0.3l1.7,1c0.2,0.1,0.4,0.2,0.6,0.3l-0.1,0.5l0.9-0.5l0,0c0.4-0.3,0.6-0.8,0.5-1.4
			v-4C152.4,294,151.7,292.7,150.5,291.8z"/>
		<path class="st22" d="M149.8,301l-1.7-1v-1.2l1.7,1c0.3,0.1,0.8,0.5,0.8-0.5v-4c-0.1-0.7-0.4-1.3-1-1.7l-1.6-0.9v-1.2l1.6,1
			c1.2,0.8,1.9,2.1,2,3.5v4C151.7,300.9,151.2,301.8,149.8,301z"/>
		<g id="_Группа_">
			<g id="_Группа_2">
				<path id="_Контур_11" class="st13" d="M242.2,269.3l-23-13.3c-0.4-0.2-0.9-0.2-1.3,0l-40.4,23.3l23.7,13.7L242.2,269.3z"
					/>
				<path id="_Контур_12" class="st3" d="M243.3,266.7l-23-13.3c-0.4-0.2-0.9-0.2-1.3,0l-40.4,23.3l23.7,13.7L243.3,266.7z"/>
				<path class="st23" d="M201.2,285.5l-1.8,1c-0.1,0.1-0.1,0.2,0,0.3l1.7,1c0.2,0.1,0.4,0.1,0.6,0l1.8-1c0.1-0.1,0.1-0.2,0-0.3
					l-1.7-1C201.6,285.4,201.4,285.4,201.2,285.5z"/>
				<path class="st23" d="M203.7,284.1l-1.8,1c-0.1,0.1-0.1,0.2,0,0.3l1.7,1c0.2,0.1,0.4,0.1,0.6,0l1.8-1c0.1-0.1,0.1-0.2,0-0.3
					l-1.7-1C204.1,284,203.9,284,203.7,284.1z"/>
				<path class="st23" d="M206.2,282.6l-1.8,1c-0.1,0.1-0.1,0.2,0,0.3l1.7,1c0.2,0.1,0.4,0.1,0.6,0l1.8-1c0.1-0.1,0.1-0.2,0-0.3
					l-1.7-1C206.6,282.5,206.4,282.5,206.2,282.6z"/>
				<path class="st23" d="M208.6,281.2l-1.8,1c-0.1,0.1-0.1,0.2,0,0.3l1.7,1c0.2,0.1,0.4,0.1,0.6,0l1.8-1c0.1-0.1,0.1-0.2,0-0.3
					l-1.7-1C209,281.1,208.8,281.1,208.6,281.2z"/>
				<path class="st23" d="M211.1,279.8l-1.8,1c-0.1,0.1-0.1,0.2,0,0.3l1.7,1c0.2,0.1,0.4,0.1,0.6,0l1.8-1c0.1-0.1,0.1-0.2,0-0.3
					l-1.7-1C211.5,279.7,211.3,279.7,211.1,279.8z"/>
				<path class="st23" d="M213.6,278.3l-1.8,1c-0.1,0.1-0.1,0.2,0,0.3l1.7,1c0.2,0.1,0.4,0.1,0.6,0l1.8-1c0.1-0.1,0.1-0.2,0-0.3
					l-1.7-1C214,278.2,213.8,278.2,213.6,278.3z"/>
				<path class="st23" d="M216.1,276.9l-1.8,1c-0.1,0.1-0.1,0.2,0,0.3l1.7,1c0.2,0.1,0.4,0.1,0.6,0l1.8-1c0.1-0.1,0.1-0.2,0-0.3
					l-1.7-1C216.5,276.8,216.3,276.8,216.1,276.9z"/>
				<path class="st23" d="M218.6,275.5l-1.8,1c-0.1,0.1-0.1,0.2,0,0.3l1.7,1c0.2,0.1,0.4,0.1,0.6,0l1.8-1c0.1-0.1,0.1-0.2,0-0.3
					l-1.7-1C219,275.4,218.8,275.4,218.6,275.5z"/>
				<path class="st23" d="M221.1,274l-1.8,1c-0.1,0.1-0.1,0.2,0,0.3l1.7,1c0.2,0.1,0.4,0.1,0.6,0l1.8-1c0.1-0.1,0.1-0.2,0-0.3
					l-1.7-1C221.5,273.9,221.2,273.9,221.1,274z"/>
				<path class="st23" d="M223.6,272.6l-1.8,1c-0.1,0.1-0.1,0.2,0,0.3l1.7,1c0.2,0.1,0.4,0.1,0.6,0l1.8-1c0.1-0.1,0.1-0.2,0-0.3
					l-1.7-1C223.9,272.5,223.7,272.5,223.6,272.6z"/>
				<path class="st23" d="M226,271.1l-1.8,1c-0.1,0.1-0.1,0.2,0,0.3l1.7,1c0.2,0.1,0.4,0.1,0.6,0l1.8-1c0.1-0.1,0.1-0.2,0-0.3
					l-1.7-1C226.4,271.1,226.2,271.1,226,271.1z"/>
				<path class="st23" d="M228.5,269.7l-1.8,1c-0.1,0.1-0.1,0.2,0,0.3l1.7,1c0.2,0.1,0.4,0.1,0.6,0l1.8-1c0.1-0.1,0.1-0.2,0-0.3
					l-1.7-1C228.9,269.6,228.7,269.6,228.5,269.7z"/>
				<path class="st23" d="M231,268.3l-1.8,1c-0.1,0.1-0.1,0.2,0,0.3l1.7,1c0.2,0.1,0.4,0.1,0.6,0l1.8-1c0.1-0.1,0.1-0.2,0-0.3
					l-1.7-1C231.4,268.2,231.2,268.2,231,268.3z"/>
				<path class="st23" d="M234.7,266.2l-3,1.7c-0.1,0.1-0.1,0.2,0,0.3l1.7,1c0.2,0.1,0.4,0.1,0.6,0l3-1.7c0.1-0.1,0.1-0.2,0-0.3
					l-1.7-1C235.1,266.1,234.9,266.1,234.7,266.2z"/>
				<path class="st23" d="M202.5,282l-1.8,1c-0.1,0.1-0.1,0.2,0,0.3l1.7,1c0.2,0.1,0.4,0.1,0.6,0l1.8-1c0.1-0.1,0.1-0.2,0-0.3
					l-1.7-1C202.8,281.9,202.6,281.9,202.5,282z"/>
				<path class="st23" d="M205,280.5l-1.8,1c-0.1,0.1-0.1,0.2,0,0.3l1.7,1c0.2,0.1,0.4,0.1,0.6,0l1.8-1c0.1-0.1,0.1-0.2,0-0.3
					l-1.7-1C205.4,280.4,205.2,280.4,205,280.5z"/>
				<path class="st23" d="M207.4,279.1l-1.8,1c-0.1,0.1-0.1,0.2,0,0.3l1.7,1c0.2,0.1,0.4,0.1,0.6,0l1.8-1c0.1-0.1,0.1-0.2,0-0.3
					l-1.7-1C207.8,279,207.6,279,207.4,279.1z"/>
				<path class="st23" d="M209.9,277.7l-1.8,1c-0.1,0.1-0.1,0.2,0,0.3l1.7,1c0.2,0.1,0.4,0.1,0.6,0l1.8-1c0.1-0.1,0.1-0.2,0-0.3
					l-1.7-1C210.3,277.6,210.1,277.6,209.9,277.7z"/>
				<path class="st23" d="M212.4,276.2l-1.8,1c-0.1,0.1-0.1,0.2,0,0.3l1.7,1c0.2,0.1,0.4,0.1,0.6,0l1.8-1c0.1-0.1,0.1-0.2,0-0.3
					l-1.7-1C212.8,276.2,212.6,276.2,212.4,276.2z"/>
				<path class="st23" d="M214.9,274.8l-1.8,1c-0.1,0.1-0.1,0.2,0,0.3l1.7,1c0.2,0.1,0.4,0.1,0.6,0l1.8-1c0.1-0.1,0.1-0.2,0-0.3
					l-1.7-1C215.3,274.7,215.1,274.7,214.9,274.8z"/>
				<path class="st23" d="M217.4,273.4l-1.8,1c-0.1,0.1-0.1,0.2,0,0.3l1.7,1c0.2,0.1,0.4,0.1,0.6,0l1.8-1c0.1-0.1,0.1-0.2,0-0.3
					l-1.7-1C217.8,273.3,217.6,273.3,217.4,273.4z"/>
				<path class="st23" d="M219.9,271.9l-1.8,1c-0.1,0.1-0.1,0.2,0,0.3l1.7,1c0.2,0.1,0.4,0.1,0.6,0l1.8-1c0.1-0.1,0.1-0.2,0-0.3
					l-1.7-1C220.3,271.8,220,271.8,219.9,271.9z"/>
				<path class="st23" d="M222.4,270.5l-1.8,1c-0.1,0.1-0.1,0.2,0,0.3l1.7,1c0.2,0.1,0.4,0.1,0.6,0l1.8-1c0.1-0.1,0.1-0.2,0-0.3
					l-1.7-1C222.7,270.4,222.5,270.4,222.4,270.5z"/>
				<path class="st23" d="M224.9,269l-1.8,1c-0.1,0.1-0.1,0.2,0,0.3l1.7,1c0.2,0.1,0.4,0.1,0.6,0l1.8-1c0.1-0.1,0.1-0.2,0-0.3
					l-1.7-1C225.2,269,225,269,224.9,269z"/>
				<path class="st23" d="M227.3,267.6l-1.8,1c-0.1,0.1-0.1,0.2,0,0.3l1.7,1c0.2,0.1,0.4,0.1,0.6,0l1.8-1c0.1-0.1,0.1-0.2,0-0.3
					l-1.7-1C227.7,267.5,227.5,267.5,227.3,267.6z"/>
				<path class="st23" d="M229.8,266.2l-1.8,1c-0.1,0.1-0.1,0.2,0,0.3l1.7,1c0.2,0.1,0.4,0.1,0.6,0l1.8-1c0.1-0.1,0.1-0.2,0-0.3
					l-1.7-1C230.2,266.1,230,266.1,229.8,266.2z"/>
				<path class="st23" d="M200,283.4l-3,1.7c-0.1,0.1-0.1,0.2,0,0.3l1.7,1c0.2,0.1,0.4,0.1,0.6,0l2.9-1.7c0.1-0.1,0.1-0.2,0-0.3
					l-1.7-1C200.3,283.3,200.2,283.3,200,283.4z"/>
				<path class="st23" d="M234.6,266.1l-1.8,1c-0.2,0.1-0.4,0.1-0.5,0l-1.8-1c-0.1-0.1-0.1-0.2,0-0.3l0.1-0.1c0.1-0.1,0.1-0.2,0-0.3
					l-1.9-1.1c-0.1-0.1-0.1-0.2,0-0.3l1.1-0.6c0.2-0.1,0.4-0.1,0.5,0l1.8,1l0.4,0.2l0.3,0.1l0.3,0.1l1.5,0.9
					C234.7,265.9,234.7,266,234.6,266.1z"/>
				<path class="st23" d="M191.6,279.9l-1.8,1c-0.1,0.1-0.1,0.2,0,0.3l1.7,1c0.2,0.1,0.4,0.1,0.6,0l1.8-1c0.1-0.1,0.1-0.2,0-0.3
					l-1.7-1C192,279.8,191.8,279.8,191.6,279.9z"/>
				<path class="st23" d="M194.1,278.5l-1.8,1c-0.1,0.1-0.1,0.2,0,0.3l1.7,1c0.2,0.1,0.4,0.1,0.6,0l1.8-1c0.1-0.1,0.1-0.2,0-0.3
					l-1.7-1C194.4,278.4,194.2,278.4,194.1,278.5z"/>
				<path class="st23" d="M196.5,277.1l-1.8,1c-0.1,0.1-0.1,0.2,0,0.3l1.7,1c0.2,0.1,0.4,0.1,0.6,0l1.8-1c0.1-0.1,0.1-0.2,0-0.3
					l-1.7-1C196.9,277,196.7,277,196.5,277.1z"/>
				<path class="st23" d="M217.6,264.9l-1.8,1c-0.1,0.1-0.1,0.2,0,0.3l1.7,1c0.2,0.1,0.4,0.1,0.6,0l1.8-1c0.1-0.1,0.1-0.2,0-0.3
					l-1.7-1C218,264.8,217.8,264.8,217.6,264.9z"/>
				<path class="st23" d="M220.1,263.5l-1.8,1c-0.1,0.1-0.1,0.2,0,0.3l1.7,1c0.2,0.1,0.4,0.1,0.6,0l1.8-1c0.1-0.1,0.1-0.2,0-0.3
					l-1.7-1C220.5,263.4,220.3,263.4,220.1,263.5z"/>
				<path class="st23" d="M222.6,262l-1.8,1c-0.1,0.1-0.1,0.2,0,0.3l1.7,1c0.2,0.1,0.4,0.1,0.6,0l1.8-1c0.1-0.1,0.1-0.2,0-0.3
					l-1.7-1C223,261.9,222.8,261.9,222.6,262z"/>
				<path class="st23" d="M225.1,260.6l-1.8,1c-0.1,0.1-0.1,0.2,0,0.3l1.7,1c0.2,0.1,0.4,0.1,0.6,0l1.8-1c0.1-0.1,0.1-0.2,0-0.3
					l-1.7-1C225.4,260.5,225.2,260.5,225.1,260.6z"/>
				<path class="st23" d="M199.6,275.3l-2.4,1.4c-0.1,0.1-0.1,0.2,0,0.3l1.7,1c0.2,0.1,0.4,0.1,0.6,0l2.4-1.4c0.1-0.1,0.1-0.2,0-0.3
					l-1.7-1C200,275.2,199.8,275.2,199.6,275.3z"/>
				<path class="st23" d="M215.1,266.3l-2.4,1.4c-0.1,0.1-0.1,0.2,0,0.3l1.7,1c0.2,0.1,0.4,0.1,0.6,0l2.4-1.4c0.1-0.1,0.1-0.2,0-0.3
					l-1.7-1C215.5,266.2,215.3,266.2,215.1,266.3z"/>
				<path class="st23" d="M212,268.1l-11.7,6.7c-0.1,0.1-0.1,0.2,0,0.3l1.7,1c0.2,0.1,0.4,0.1,0.6,0l11.7-6.7
					c0.1-0.1,0.1-0.2-0.1-0.3l-1.7-1C212.4,268,212.2,268,212,268.1z"/>
				<path class="st23" d="M200.7,280.2l-1.8,1c-0.1,0.1-0.1,0.2,0,0.3l1.7,1c0.2,0.1,0.4,0.1,0.6,0l1.8-1c0.1-0.1,0.1-0.2,0-0.3
					l-1.7-1C201.1,280.1,200.9,280.1,200.7,280.2z"/>
				<path class="st23" d="M203.2,278.8l-1.8,1c-0.1,0.1-0.1,0.2,0,0.3l1.7,1c0.2,0.1,0.4,0.1,0.6,0l1.8-1c0.1-0.1,0.1-0.2,0-0.3
					l-1.7-1C203.6,278.7,203.4,278.7,203.2,278.8z"/>
				<path class="st23" d="M205.7,277.3l-1.8,1c-0.1,0.1-0.1,0.2,0,0.3l1.7,1c0.2,0.1,0.4,0.1,0.6,0l1.8-1c0.1-0.1,0.1-0.2,0-0.3
					l-1.7-1C206.1,277.2,205.9,277.2,205.7,277.3z"/>
				<path class="st23" d="M208.2,275.9l-1.8,1c-0.1,0.1-0.1,0.2,0,0.3l1.7,1c0.2,0.1,0.4,0.1,0.6,0l1.8-1c0.1-0.1,0.1-0.2,0-0.3
					l-1.7-1C208.6,275.8,208.4,275.8,208.2,275.9z"/>
				<path class="st23" d="M210.7,274.5l-1.8,1c-0.1,0.1-0.1,0.2,0,0.3l1.7,1c0.2,0.1,0.4,0.1,0.6,0l1.8-1c0.1-0.1,0.1-0.2,0-0.3
					l-1.7-1C211.1,274.4,210.8,274.4,210.7,274.5z"/>
				<path class="st23" d="M213.1,273l-1.8,1c-0.1,0.1-0.1,0.2,0,0.3l1.7,1c0.2,0.1,0.4,0.1,0.6,0l1.8-1c0.1-0.1,0.1-0.2,0-0.3
					l-1.7-1C213.5,272.9,213.3,272.9,213.1,273z"/>
				<path class="st23" d="M215.6,271.6l-1.8,1c-0.1,0.1-0.1,0.2,0,0.3l1.7,1c0.2,0.1,0.4,0.1,0.6,0l1.8-1c0.1-0.1,0.1-0.2,0-0.3
					l-1.7-1C216,271.5,215.8,271.5,215.6,271.6z"/>
				<path class="st23" d="M218.1,270.2l-1.8,1c-0.1,0.1-0.1,0.2,0,0.3l1.7,1c0.2,0.1,0.4,0.1,0.6,0l1.8-1c0.1-0.1,0.1-0.2,0-0.3
					l-1.7-1C218.5,270.1,218.3,270.1,218.1,270.2z"/>
				<path class="st23" d="M220.6,268.7l-1.8,1c-0.1,0.1-0.1,0.2,0,0.3l1.7,1c0.2,0.1,0.4,0.1,0.6,0l1.8-1c0.1-0.1,0.1-0.2,0-0.3
					l-1.7-1C221,268.6,220.8,268.6,220.6,268.7z"/>
				<path class="st23" d="M223.1,267.3l-1.8,1c-0.1,0.1-0.1,0.2,0,0.3l1.7,1c0.2,0.1,0.4,0.1,0.6,0l1.8-1c0.1-0.1,0.1-0.2,0-0.3
					l-1.7-1C223.5,267.2,223.2,267.2,223.1,267.3z"/>
				<path class="st23" d="M225.6,265.9l-1.8,1c-0.1,0.1-0.1,0.2,0,0.3l1.7,1c0.2,0.1,0.4,0.1,0.6,0l1.8-1c0.1-0.1,0.1-0.2,0-0.3
					l-1.7-1C225.9,265.8,225.7,265.8,225.6,265.9z"/>
				<path class="st23" d="M228,264.4l-1.8,1c-0.1,0.1-0.1,0.2,0,0.3l1.7,1c0.2,0.1,0.4,0.1,0.6,0l1.8-1c0.1-0.1,0.1-0.2,0-0.3
					l-1.7-1C228.4,264.3,228.2,264.3,228,264.4z"/>
				<path class="st23" d="M198.3,281.6l-3.6,2.1c-0.1,0.1-0.1,0.2,0,0.3l1.7,1c0.2,0.1,0.4,0.1,0.6,0l3.6-2.1c0.1-0.1,0.1-0.2,0-0.3
					l-1.7-1C198.6,281.5,198.4,281.5,198.3,281.6z"/>
				<path class="st23" d="M197.1,279.5l-1.8,1c-0.1,0.1-0.1,0.2,0,0.3l1.7,1c0.2,0.1,0.4,0.1,0.6,0l1.8-1c0.1-0.1,0.1-0.2,0-0.3
					l-1.7-1C197.5,279.4,197.3,279.4,197.1,279.5z"/>
				<path class="st23" d="M199.6,278.1l-1.8,1c-0.1,0.1-0.1,0.2,0,0.3l1.7,1c0.2,0.1,0.4,0.1,0.6,0l1.8-1c0.1-0.1,0.1-0.2,0-0.3
					l-1.7-1C200,278,199.8,278,199.6,278.1z"/>
				<path class="st23" d="M202.1,276.6l-1.8,1c-0.1,0.1-0.1,0.2,0,0.3l1.7,1c0.2,0.1,0.4,0.1,0.6,0l1.8-1c0.1-0.1,0.1-0.2,0-0.3
					l-1.7-1C202.4,276.6,202.2,276.6,202.1,276.6z"/>
				<path class="st23" d="M204.6,275.2l-1.8,1c-0.1,0.1-0.1,0.2,0,0.3l1.7,1c0.2,0.1,0.4,0.1,0.6,0l1.8-1c0.1-0.1,0.1-0.2,0-0.3
					l-1.7-1C204.9,275.1,204.7,275.1,204.6,275.2z"/>
				<path class="st23" d="M207,273.8l-1.8,1c-0.1,0.1-0.1,0.2,0,0.3l1.7,1c0.2,0.1,0.4,0.1,0.6,0l1.8-1c0.1-0.1,0.1-0.2,0-0.3
					l-1.7-1C207.4,273.7,207.2,273.7,207,273.8z"/>
				<path class="st23" d="M209.5,272.4l-1.8,1c-0.1,0.1-0.1,0.2,0,0.3l1.7,1c0.2,0.1,0.4,0.1,0.6,0l1.8-1c0.1-0.1,0.1-0.2,0-0.3
					l-1.7-1C209.9,272.3,209.7,272.3,209.5,272.4z"/>
				<path class="st23" d="M212,270.9l-1.8,1c-0.1,0.1-0.1,0.2,0,0.3l1.7,1c0.2,0.1,0.4,0.1,0.6,0l1.8-1c0.1-0.1,0.1-0.2,0-0.3
					l-1.7-1C212.4,270.8,212.2,270.8,212,270.9z"/>
				<path class="st23" d="M214.5,269.5l-1.8,1c-0.1,0.1-0.1,0.2,0,0.3l1.7,1c0.2,0.1,0.4,0.1,0.6,0l1.8-1c0.1-0.1,0.1-0.2,0-0.3
					l-1.7-1C214.9,269.4,214.6,269.4,214.5,269.5z"/>
				<path class="st23" d="M217,268.1l-1.8,1c-0.1,0.1-0.1,0.2,0,0.3l1.7,1c0.2,0.1,0.4,0.1,0.6,0l1.8-1c0.1-0.1,0.1-0.2,0-0.3
					l-1.7-1C217.4,268,217.2,268,217,268.1z"/>
				<path class="st23" d="M219.4,266.6l-1.8,1c-0.1,0.1-0.1,0.2,0,0.3l1.7,1c0.2,0.1,0.4,0.1,0.6,0l1.8-1c0.1-0.1,0.1-0.2,0-0.3
					l-1.7-1C219.8,266.5,219.6,266.5,219.4,266.6z"/>
				<path class="st23" d="M221.9,265.2l-1.8,1c-0.1,0.1-0.1,0.2,0,0.3l1.7,1c0.2,0.1,0.4,0.1,0.6,0l1.8-1c0.1-0.1,0.1-0.2,0-0.3
					l-1.7-1C222.3,265.1,222.1,265.1,221.9,265.2z"/>
				<path class="st23" d="M227.5,262l-4.8,2.8c-0.1,0.1-0.1,0.2,0,0.3l1.7,1c0.2,0.1,0.4,0.1,0.6,0l4.8-2.8c0.1-0.1,0.1-0.2,0-0.3
					l-1.7-1C227.8,261.9,227.6,261.9,227.5,262z"/>
				<path class="st23" d="M194.6,281l-2.4,1.4c-0.1,0.1-0.1,0.2,0,0.3l1.7,1c0.2,0.1,0.4,0.1,0.6,0l2.4-1.4c0.1-0.1,0.1-0.2-0.1-0.3
					l-1.7-1C195,280.9,194.8,280.9,194.6,281z"/>
				<path class="st23" d="M237.2,267.6l-35.2,20.4c-0.1,0.1-0.1,0.2,0,0.3l0.8,0.5c0.2,0.1,0.4,0.1,0.6,0l35.2-20.4
					c0.1-0.1,0.1-0.2,0-0.3l-0.8-0.5C237.6,267.5,237.4,267.5,237.2,267.6z"/>
				<polygon id="_Контур_13" class="st24" points="195.9,268.5 196.2,268.6 202.3,272.1 213.1,265.9 213.3,265.8 207,262.1 
									"/>
				<polygon id="_Контур_14" class="st25" points="196.2,268.6 202.3,272.1 213.1,265.9 207,262.4 				"/>
				<path id="_Контур_15" class="st25" d="M178.6,276.7v0.5c0,0.8,0.4,1.5,1.1,1.9l21.5,12.4c0.3,0.2,0.7,0.3,1.1,0.3
					c0.4,0,0.8-0.1,1.1-0.3l38.8-22.4c0.7-0.4,1.1-1.1,1.1-1.9v-0.5l-41,23.7L178.6,276.7z"/>
				<path id="_Контур_16" class="st3" d="M202.9,290.7c0.7,0.3,1.6,0.2,2.3-0.2l38.7-22.3c0.7-0.4,1.1-1.1,1.3-1.8l4.2-25.2
					c0-0.1,0-0.3,0-0.4c0-0.7-0.3-1.4-0.8-1.9L208.4,262c-0.5,0.3-0.8,0.8-0.9,1.4L202.9,290.7z"/>
				<path id="_Контур_17" class="st25" d="M202.3,290.4l0.3,0.1c0.1,0.1,0.2,0.1,0.4,0.2l4.6-27.3c0.1-0.6,0.4-1.1,0.9-1.4
					l40.2-23.2c-0.2-0.2-0.3-0.3-0.5-0.4l-40.3,23.2c-0.5,0.3-0.8,0.8-0.9,1.4L202.3,290.4z"/>
			</g>
		</g>
		<ellipse class="st0" cx="404.5" cy="477" rx="39.8" ry="23"/>
		<g id="Men_1">
			<path id="_Контур_18" class="st2" d="M436.7,302.3c0.5,4,5.2,21.1,4.2,27s-17.2,15.7-17.2,15.7l-2.2-10l9-8.8l-2.5-16.7
				L436.7,302.3z"/>
			<path id="_Контур_19" class="st6" d="M424.2,285.4c3.3-1.5,7.1-0.3,9,2.7c2.4,3.9,4.9,17.5,5.1,19.8c0,0-3.3,4.6-8.4,3.8
				L424.2,285.4z"/>
			<path class="st4" d="M405.8,476.3c-3.5,1-7.3,0.5-10.5-1.3c-2.5,0.1-16.2-5.8-18.1-0.9c-1.6,4.3,4.3,8.3,7.5,9.1
				c6.9,1.7,12,5.1,14.8,5.7c2.1,0.4,4.8,0.7,6.4-0.9C407.9,486.1,407.7,478.9,405.8,476.3z"/>
			<path class="st5" d="M399.5,487.8c-2.8-0.6-7.9-4-14.8-5.7c-2.7-0.6-7.2-3.5-7.7-7c-0.6,4,4.7,7.5,7.7,8.2
				c6.9,1.7,12,5.1,14.8,5.7c2.1,0.4,4.8,0.7,6.4-0.9c0.4-0.5,0.7-1,0.9-1.6C404.7,488,402,488.5,399.5,487.8z"/>
			<path class="st4" d="M428,466.4c-3.5,1-7.3,0.5-10.5-1.3c-2.5,0.1-16.2-5.8-18.1-0.9c-1.6,4.3,4.3,8.3,7.5,9.1
				c6.9,1.7,12,5.1,14.8,5.7c2.1,0.4,4.8,0.7,6.4-0.9C430.1,476.1,429.9,468.9,428,466.4z"/>
			<path class="st26" d="M421.7,477.8c-2.8-0.6-7.9-4-14.8-5.7c-2.7-0.6-7.2-3.5-7.7-7c-0.6,4,4.7,7.5,7.7,8.2
				c6.9,1.7,12,5.1,14.8,5.7c2.1,0.4,4.8,0.7,6.4-0.9c0.4-0.5,0.7-1,0.9-1.6C426.9,478,424.2,478.5,421.7,477.8z"/>
			<path id="_Контур_20" class="st1" d="M428.2,429.2c-0.6-5.1-1.6-10.1-3.2-15c0,0,1-12.9,1.4-25.2
				c0.5-13.9,5.4-26.2,1.5-37.3l-43,9.5c0,0,2.6,55.5,3.2,62.2c0.3,5.2,1,10.4,1.9,15.6c2,10.8,5.1,36.4,5.1,36.4
				c4.5,2.6,10.5,1.2,10.5,1.2s-0.3-32.4-0.6-40.2c-0.4-9.5-0.6-8.8-0.6-8.8l1.4-23.6l0.9-11.7c0,0,1.2,8.6,2,16.3
				c0.7,6.7,2.3,12.8,4.1,25.3c1.6,10.8,4.1,32.6,4.1,32.6c4.5,2.6,10.7,0.5,10.7,0.5S429.5,438.6,428.2,429.2z"/>
			<path id="_Контур_21" class="st2" d="M422,285.6c-3.3,0.2-5.7,1-6.1,0c-0.4-1.7-0.6-3.4-0.8-5.1c0.4-1,0.7-2,0.7-2
				c4.1-2.5,5.4-7,6-12.1c0.9-8.8-3.9-16.6-12.7-17.5c-8.3-0.9-14.4,5-16,13c-0.9,4-2.6,11.4-0.3,18c1.3,3.6,3,6.5,4.7,7.1
				c1.6,0,3.3-0.2,4.9-0.4l0,0c0,0,0.4,2.5,0.8,4s0.2,2.4-3,4.3s4.7,5.9,9.9,5.5s10.9-3.4,12.5-6.8
				C424.4,289.9,424.2,285.5,422,285.6z"/>
			<path id="_Контур_22" class="st3" d="M417.2,286.1c0.9,2.3-1.4,5-7.5,7s-6.7-0.5-6.7-0.5s-9,4.1-11.9,6.1
				c-3.7,2.6-5.3,10-5.8,22.6c-0.6,14.6-0.6,36.2-0.1,39.9c0,0,6.9,6.9,15.7,6.1s23.7-8.5,27.3-14.6c-0.1-12.8-1.6-14.9,0.5-22.2
				c4.7-16.9,7.2-23.8,4.9-35c-1.9-9.2-4.6-10.4-8.2-10.3C422.6,285.5,419.9,285.7,417.2,286.1z"/>
			<path id="_Контур_23" class="st2" d="M371.4,333.4c7.2,1.8,8.9-2.7,9.9-6.5c2.3-9.1,3.5-17.4,5.3-22.6
				c2-6.1,4.1-7.1,7.1-8.3c3.5-1.4,6.5,1.5,5.3,9.4c-1.4,9.2-3.2,15.7-6.6,26.6c-0.9,2.9-2.9,7.9-5.9,10.4c-3.7,3-9.4,2.9-17.9,0.8
				c-3.6-0.9-7.6-3.1-14.5-6.3c-1.8-0.9-3.3-1.4-6.8-3.1s-7.2-4.4-9.1-7.1s-2.1-4-1.7-4.6c0.5-0.8,1.3-0.6,2.3,0.5
				c1.4,1.9,3.2,3.5,5.2,4.8c0,0-2.3-2.4-3.5-3.9c-1.1-1.4-2-2.9-2.7-4.5c-0.6-1.6,0.7-3.7,1.7-2.6s1.5,2.3,3.4,4.5
				c1,1.2,2.1,2.3,3.4,3.2c-1.2-1.6-2.2-3.3-3.1-5c-0.8-1.4-1.2-2.9-1.1-4.5c0-0.8,1.2-1.8,2.3-0.2c1,1.4,1.6,3.6,3.9,5.9
				c1.6,1.7,3.1,2.7,3.1,2.2s-1-1.4-1.6-3.4s0-4.1,1.1-4.3s0.9-0.2,1.8,1.7s2.3,3.3,3.3,6c0.6,1.9,1.6,3.7,3,5.1
				C360.5,329.5,364.5,331.6,371.4,333.4z"/>
			<path id="_Контур_24" class="st6" d="M396.3,294.7c-4.8-0.7-8.2,1.5-10.4,8.8s-3.6,13.3-3.6,13.3c1.9,2.8,4.8,4.7,8.1,5.4
				c5.8,1.4,7.9-1.4,7.9-1.4s1.6-7.7,2.6-12.9S402.3,295.6,396.3,294.7z"/>
			<path class="st1" d="M393.3,260.8c0,0-7.6-11.6,8.9-14c11.9-1.7,19.6,6,20.5,14.3c0.9,8-4,16.2-7.6,19.5c-1.7,0.6-5.4,1-10.3-1.3
				c-0.2-2.2-0.3-4.3-0.2-6.5C404.6,272.8,410.4,260.6,393.3,260.8z"/>
		</g>
		
			<ellipse transform="matrix(0.1602 -0.9871 0.9871 0.1602 0.2724 406.1802)" class="st27" cx="238.8" cy="202.9" rx="17.6" ry="17.6"/>
		<path class="st28" d="M238.8,211.3c-6.7,0-13.1-1.5-17.7-4.2c-3.8-2.2-6-5-6-7.6s2.2-5.4,6-7.6c4.6-2.7,11-4.2,17.7-4.2
			s13.1,1.5,17.7,4.2c3.8,2.2,6,5,6,7.6s-2.2,5.4-6,7.6C252,209.7,245.5,211.3,238.8,211.3z"/>
		<path class="st27" d="M238.8,208.2c-6.7,0-13.1-1.5-17.7-4.2c-3.8-2.2-6-5-6-7.6s2.2-5.4,6-7.6c4.6-2.6,11-4.2,17.7-4.2
			s13.1,1.5,17.7,4.2c3.8,2.2,6,5,6,7.6s-2.2,5.4-6,7.6C252,206.7,245.5,208.2,238.8,208.2z"/>
		<path class="st28" d="M238.8,205.5c-8.6,0-17-2-23-5.4c-5-2.9-7.8-6.5-7.8-9.9s2.8-7,7.8-9.9c5.9-3.4,14.3-5.4,23-5.4s17,2,23,5.4
			c5,2.9,7.8,6.5,7.8,9.9s-2.9,7-7.8,9.9C255.9,203.5,247.5,205.5,238.8,205.5z"/>
		<path class="st27" d="M238.8,201.6c-8.6,0-17-2-23-5.4c-5-2.9-7.8-6.5-7.8-9.9s2.8-7,7.8-9.9c5.9-3.4,14.3-5.4,23-5.4s17,2,23,5.4
			c5,2.9,7.8,6.5,7.8,9.9s-2.9,7-7.8,9.9C255.9,199.6,247.5,201.6,238.8,201.6z"/>
		<path class="st28" d="M238.8,197.9c-10.5,0-20.7-2.4-28-6.6c-6.1-3.5-9.5-7.9-9.5-12.1s3.5-8.6,9.5-12.1c7.3-4.2,17.5-6.6,28-6.6
			s20.7,2.4,28,6.6c6,3.5,9.5,7.9,9.5,12.1s-3.5,8.6-9.5,12.1C259.6,195.5,249.4,197.9,238.8,197.9z"/>
		<path class="st27" d="M238.8,193.1c-10.5,0-20.7-2.4-28-6.6c-6.1-3.5-9.5-7.9-9.5-12.1s3.5-8.6,9.5-12.1c7.3-4.2,17.5-6.6,28-6.6
			s20.7,2.4,28,6.6c6,3.5,9.5,7.9,9.5,12.1s-3.5,8.6-9.5,12.1C259.6,190.7,249.4,193.1,238.8,193.1z"/>
		<path class="st28" d="M238.8,188.2c-12.1,0-23.8-2.8-32.1-7.6c-6.9-4-10.9-9.1-10.9-13.9s4-9.9,10.9-13.9
			c8.3-4.8,20.1-7.6,32.1-7.6s23.8,2.8,32.2,7.6c7,4,10.9,9.1,10.9,13.9s-4,9.9-10.9,13.9C262.6,185.5,250.9,188.2,238.8,188.2z"/>
		<path class="st27" d="M238.8,182.7c-12.1,0-23.8-2.8-32.1-7.6c-6.9-4-10.9-9.1-10.9-13.9s4-9.9,10.9-13.9
			c8.3-4.8,20.1-7.6,32.1-7.6s23.8,2.8,32.2,7.6c7,4,10.9,9.1,10.9,13.9s-4,9.9-10.9,13.9C262.6,180,250.9,182.7,238.8,182.7z"/>
		<ellipse class="st29" cx="238.8" cy="150.7" rx="48.4" ry="28"/>
		<rect x="222.2" y="81.8" class="st30" width="4.3" height="66.7"/>
		<rect x="251.6" y="81.8" class="st30" width="4.3" height="66.7"/>
		<polygon class="st30" points="238.7,86.1 232.4,80.3 224.7,85.5 222.2,81.8 232.9,74.8 239,80.4 246.3,74.7 255.9,81.8 
			252.9,85.2 246.3,80.3 		"/>
		<path class="st31" d="M287.2,152.1c0.1-6.3,1.2-24.8,15.9-50.4C320.6,71.5,302.4,0,238.7,0s-81.9,71.5-64.4,101.8
			c12.8,22.1,15.5,41.7,16.1,50.7"/>
		<g id="Glasses">
			<path class="st13" d="M205.1,334.1l-2.8-2.6c-0.4-0.5-0.8-1-1.3-1.4c-0.2-0.2-0.4-0.3-0.7-0.5l-3.6-2.4l-3.9-1.7
				c-0.2-0.1-0.5-0.2-0.7-0.3c-0.6-0.2-1.2-0.3-1.8-0.3l-3.7-1.2c-0.2,0-0.1,0.4,0,0.5l0.4,0.1c0.4,0.2,0.1,0.1,0.5,0.4l2.1,0.5
				c1.4-0.1,2.7,0.3,3.9,1l2.9,1.4l2.7,1.6c1.2,0.7,2.2,1.7,2.7,2.9l1.4,1.2c0.4,0.4,0.2,0.2,0.9,0.3l0.4,0.3
				C204.9,334.3,205.3,334.3,205.1,334.1z"/>
			<path class="st32" d="M197.3,328.6c0.2-0.3,0.5-0.6,0.9-0.8c0.5-0.3,1.1-0.4,1.7-0.4c0.7,0.1,1.4,0.3,2,0.6h0.1l1,0.5
				c0.3,0.1,0.5,0.3,0.7,0.5l0.5,0.3c0.7,0.5,0.5,1.6-0.1,2.5c-0.3,0.5-0.7,0.9-1.2,1.3c-0.8,0.7-1.8,0.9-2.8,0.6
				c-0.4-0.1-0.9-0.3-1.3-0.6c-0.4-0.2-0.7-0.5-1.1-0.8c-0.8-0.8-1.1-2-0.7-3.1C197.1,329.1,197.2,328.9,197.3,328.6z M189.1,323.6
				c0.5-0.8,1.5-1.5,2.2-1.2l0.5,0.2c0.3,0.1,0.5,0.2,0.7,0.3l0.9,0.5h0.1c0.6,0.3,1.1,0.7,1.4,1.3c0.3,0.4,0.4,1,0.4,1.5
				c-0.1,0.4-0.2,0.8-0.4,1.1c-0.2,0.2-0.4,0.4-0.6,0.6c-0.9,0.8-2.1,1.1-3.2,0.8c-0.4-0.1-0.8-0.3-1.2-0.5c-0.4-0.2-0.7-0.5-1-0.8
				c-0.7-0.6-0.9-1.6-0.5-2.4C188.5,324.6,188.8,324.1,189.1,323.6L189.1,323.6z"/>
			<path class="st23" d="M188,324.9l2.1-0.2c1.4-0.1,2.7,0.1,3.9,0.8l11.8,5.9l0.7-1l-13.2-5.8c-0.8-0.4-1.7-0.6-2.5-0.6l-4.2-0.2
				c-0.1,0-0.2,0.1-0.3,0.2c0,0.1,0,0.1,0,0.2l0.1,0.1C186.9,324.7,187.4,324.9,188,324.9z"/>
			<path class="st23" d="M203.3,333.4l-0.9-2c-0.6-1.2-1.5-2.3-2.7-3l-10.8-6.5l0.6-0.9l11.4,7.6c0.8,0.5,1.4,1.1,1.9,1.9l2.4,3.6
				c0.1,0.2-0.1,0.4-0.3,0.4h-0.2C204.1,334.4,203.6,334,203.3,333.4z"/>
			
				<linearGradient id="SVGID_1_" gradientUnits="userSpaceOnUse" x1="200.8859" y1="175" x2="200.8859" y2="168.44" gradientTransform="matrix(1 0 0 -1 0 502)">
				<stop  offset="1.000000e-02" style="stop-color:#FFFFFF"/>
				<stop  offset="0.88" style="stop-color:#FFFFFF;stop-opacity:0"/>
			</linearGradient>
			<path class="st33" d="M200.1,327c0.7,0.1,1.4,0.3,2,0.6h0.1l1,0.5c0.3,0.1,0.5,0.3,0.7,0.5s0.3,0.2,0.5,0.4
				c0.7,0.5,0.5,1.6-0.1,2.5c-0.3,0.5-0.7,0.9-1.2,1.3c-0.8,0.7-1.8,0.9-2.8,0.6c-0.4-0.1-0.9-0.3-1.3-0.6c-0.4-0.2-0.7-0.5-1.1-0.8
				c-0.8-0.8-1.1-2-0.7-3.1c0.1-0.3,0.2-0.5,0.3-0.8c0.2-0.3,0.5-0.6,0.9-0.8C198.9,327.1,199.5,326.9,200.1,327z"/>
			<path class="st23" d="M189.2,320.9l-0.5,0.8c-0.1,0.1-0.1,0.3,0,0.4c0.2,0.2,0.2,0.4,0.1,0.6l-0.9,1.8c-0.5,1-0.3,2.3,0.6,3.1
				l0,0c0.7,0.6,1.6,1.1,2.5,1.4l0,0c1.4,0.4,3,0,4-1l0.8-0.8c0.2-0.2,0.3-0.4,0.3-0.6c0.1-0.4,0.4-0.6,0.8-0.6c0.1,0,0.1,0,0.2,0.1
				l0.2,0.1l0.2,0.1c0.3,0.2,0.3,0.6,0.1,0.8c-0.1,0.1-0.1,0.1-0.2,0.2c-0.2,0.1-0.4,0.3-0.5,0.5l-0.4,1c-0.6,1.3-0.2,2.8,0.9,3.8
				l0,0c0.8,0.7,1.7,1.2,2.6,1.5l0,0c1.3,0.4,2.7,0.1,3.6-0.9l1.5-1.6c0.2-0.2,0.5-0.3,0.8-0.2c0.1,0.1,0.3,0,0.4-0.1l0.6-0.8
				c0.1-0.2,0.1-0.4,0-0.5c-1-0.9-2.1-1.7-3.3-2.3l-1-0.5c-0.7-0.4-1.6-0.7-2.4-0.7l-0.7-0.1c-0.2,0-0.3,0-0.5-0.2
				c-0.1-0.1-0.2-0.2-0.3-0.3l-0.8-0.4l-0.8-0.5c-0.1-0.1-0.2-0.1-0.4-0.1c-0.2,0-0.4-0.1-0.5-0.3l-0.4-0.5
				c-0.5-0.6-1.1-1.1-1.8-1.5l-0.9-0.5c-1.1-0.6-2.3-1.1-3.5-1.3C189.5,320.6,189.3,320.7,189.2,320.9z M197.5,328.2
				c0.2-0.3,0.5-0.6,0.9-0.8c0.5-0.3,1.1-0.4,1.7-0.4c0.7,0.1,1.4,0.3,2,0.6h0.1l1,0.5c0.3,0.1,0.5,0.3,0.7,0.5s0.3,0.2,0.5,0.4
				c0.7,0.5,0.5,1.6-0.1,2.5c-0.3,0.5-0.7,0.9-1.2,1.3c-0.8,0.7-1.8,0.9-2.8,0.6c-0.4-0.1-0.9-0.3-1.3-0.6c-0.4-0.2-0.7-0.5-1.1-0.8
				c-0.8-0.8-1.1-2-0.7-3.1C197.3,328.7,197.4,328.5,197.5,328.2L197.5,328.2z M189.3,323.2c0.6-0.8,1.5-1.5,2.3-1.2
				c0.2,0.1,0.3,0.1,0.5,0.2c0.3,0.1,0.5,0.2,0.7,0.3l0.9,0.5h0.1c0.6,0.3,1.1,0.7,1.4,1.3c0.3,0.4,0.4,1,0.4,1.5
				c-0.1,0.4-0.2,0.7-0.4,1.1c-0.2,0.2-0.4,0.4-0.6,0.6c-0.9,0.8-2.1,1.1-3.2,0.8c-0.4-0.1-0.8-0.3-1.1-0.5c-0.4-0.2-0.7-0.5-1-0.8
				c-0.7-0.6-0.9-1.6-0.5-2.4C188.7,324.2,189,323.7,189.3,323.2L189.3,323.2z"/>
			<path class="st34" d="M194.4,327.6c-0.9,0.8-2.1,1.2-3.2,0.8c-0.4-0.1-0.8-0.3-1.1-0.5c-0.4-0.2-0.7-0.5-1-0.8
				c-0.7-0.6-0.9-1.6-0.5-2.4c0.2-0.5,0.4-1,0.8-1.4l0,0c-0.3,0.4-0.5,0.9-0.7,1.3c-0.3,0.8-0.1,1.8,0.5,2.4c0.3,0.3,0.6,0.5,1,0.8
				c0.4,0.2,0.7,0.4,1.1,0.5C192.4,328.7,193.6,328.4,194.4,327.6c0.3-0.2,0.5-0.4,0.7-0.7l-0.1,0
				C194.8,327.2,194.6,327.5,194.4,327.6z"/>
			<path class="st34" d="M202.9,332.9c-0.8,0.7-1.8,0.9-2.8,0.6c-0.4-0.1-0.9-0.3-1.3-0.6c-0.4-0.2-0.7-0.5-1.1-0.8
				c-0.8-0.8-1.1-2-0.7-3.1c0.1-0.3,0.2-0.5,0.3-0.8l0.1-0.1c-0.1,0.2-0.2,0.5-0.3,0.8c-0.4,1.1-0.2,2.3,0.7,3.1
				c0.3,0.3,0.7,0.5,1.1,0.8c0.4,0.2,0.8,0.4,1.3,0.6c1,0.3,2,0.1,2.8-0.6c0.4-0.4,0.8-0.8,1.1-1.2l0,0
				C203.8,332.1,203.4,332.5,202.9,332.9z"/>
			
				<linearGradient id="SVGID_2_" gradientUnits="userSpaceOnUse" x1="191.9306" y1="180" x2="191.9306" y2="173.51" gradientTransform="matrix(1 0 0 -1 0 502)">
				<stop  offset="1.000000e-02" style="stop-color:#FFFFFF"/>
				<stop  offset="0.88" style="stop-color:#FFFFFF;stop-opacity:0"/>
			</linearGradient>
			<path class="st35" d="M195.2,324.3c-0.4-0.5-0.9-0.9-1.4-1.3h-0.1l-0.9-0.5c-0.2-0.1-0.5-0.2-0.7-0.3c-0.2-0.1-0.3-0.1-0.5-0.2
				c-0.8-0.3-1.7,0.4-2.3,1.2c-0.3,0.5-0.6,0.9-0.8,1.4c-0.3,0.8-0.1,1.8,0.5,2.4c0.3,0.3,0.6,0.5,1,0.8c0.4,0.2,0.7,0.4,1.1,0.5
				c1.1,0.3,2.4,0,3.2-0.8c0.2-0.2,0.4-0.4,0.6-0.6c0.2-0.3,0.4-0.7,0.4-1.1C195.6,325.3,195.5,324.8,195.2,324.3z"/>
		</g>
	</g>
</g>
</svg>
